<?xml version="1.0" encoding="UTF-8" standalone="no"?>
<!DOCTYPE svg PUBLIC "-//W3C//DTD SVG 1.1//EN"
 "http://www.w3.org/Graphics/SVG/1.1/DTD/svg11.dtd">
<!-- Generated by graphviz version 2.46.0 (20210119.1425)
 -->
<!-- Title: dependencies Pages: 1 -->
<svg width="1258pt" height="284pt"
 viewBox="0.00 0.00 1258.00 284.00" xmlns="http://www.w3.org/2000/svg" xmlns:xlink="http://www.w3.org/1999/xlink">
<g id="graph0" class="graph" transform="scale(1 1) rotate(0) translate(4 280)">
<title>dependencies</title>
<polygon fill="white" stroke="transparent" points="-4,4 -4,-280 1254,-280 1254,4 -4,4"/>
<text text-anchor="start" x="604.01" y="-42.4" font-family="sans-serif" font-weight="bold" font-size="14.00">Legend</text>
<polygon fill="#ffffb3" stroke="transparent" points="391,-10 391,-30 411,-30 411,-10 391,-10"/>
<text text-anchor="start" x="414.63" y="-15.4" font-family="sans-serif" font-size="14.00"> &#160;Declarations</text>
<polygon fill="#8dd3c7" stroke="transparent" points="504,-10 504,-30 524,-30 524,-10 504,-10"/>
<text text-anchor="start" x="527.73" y="-15.4" font-family="sans-serif" font-size="14.00"> &#160;Module</text>
<polygon fill="#80b1d3" stroke="transparent" points="590,-10 590,-30 610,-30 610,-10 590,-10"/>
<text text-anchor="start" x="613.78" y="-15.4" font-family="sans-serif" font-size="14.00"> &#160;Bootstrap</text>
<polygon fill="#fdb462" stroke="transparent" points="687,-10 687,-30 707,-30 707,-10 687,-10"/>
<text text-anchor="start" x="710.67" y="-15.4" font-family="sans-serif" font-size="14.00"> &#160;Providers</text>
<polygon fill="#fb8072" stroke="transparent" points="783,-10 783,-30 803,-30 803,-10 783,-10"/>
<text text-anchor="start" x="806.73" y="-15.4" font-family="sans-serif" font-size="14.00"> &#160;Exports</text>
<g id="clust1" class="cluster">
<title>cluster_AppModule</title>
<polygon fill="none" stroke="black" stroke-dasharray="1,5" points="8,-70 8,-268 1242,-268 1242,-70 8,-70"/>
</g>
<g id="clust11" class="cluster">
<title>cluster_AppModule_imports</title>
<polygon fill="none" stroke="black" points="1090,-78 1090,-130 1234,-130 1234,-78 1090,-78"/>
</g>
<g id="clust13" class="cluster">
<title>cluster_AppModule_bootstrap</title>
<polygon fill="none" stroke="black" points="563,-208 563,-260 687,-260 687,-208 563,-208"/>
</g>
<g id="clust2" class="cluster">
<title>cluster_AppModule_declarations</title>
<polygon fill="none" stroke="black" points="16,-78 16,-130 1082,-130 1082,-78 16,-78"/>
</g>
<!-- AppComponent -->
<g id="node1" class="node">
<title>AppComponent</title>
<polygon fill="#ffffb3" stroke="black" points="1073.94,-122 968.06,-122 968.06,-86 1073.94,-86 1073.94,-122"/>
<text text-anchor="middle" x="1021" y="-99.8" font-family="Times,serif" font-size="14.00">AppComponent</text>
</g>
<!-- AppModule -->
<g id="node9" class="node">
<title>AppModule</title>
<polygon fill="#8dd3c7" stroke="black" points="666.66,-187 663.66,-191 642.66,-191 639.66,-187 583.34,-187 583.34,-151 666.66,-151 666.66,-187"/>
<text text-anchor="middle" x="625" y="-164.8" font-family="Times,serif" font-size="14.00">AppModule</text>
</g>
<!-- AppComponent&#45;&gt;AppModule -->
<g id="edge1" class="edge">
<title>AppComponent&#45;&gt;AppModule</title>
<path fill="none" stroke="black" d="M1021,-122.13C1021,-142.57 1021,-173 1021,-173 1021,-173 677,-173 677,-173"/>
<polygon fill="black" stroke="black" points="677,-169.5 667,-173 677,-176.5 677,-169.5"/>
</g>
<!-- DetalleComponent -->
<g id="node2" class="node">
<title>DetalleComponent</title>
<polygon fill="#ffffb3" stroke="black" points="949.75,-122 828.25,-122 828.25,-86 949.75,-86 949.75,-122"/>
<text text-anchor="middle" x="889" y="-99.8" font-family="Times,serif" font-size="14.00">DetalleComponent</text>
</g>
<!-- DetalleComponent&#45;&gt;AppModule -->
<g id="edge2" class="edge">
<title>DetalleComponent&#45;&gt;AppModule</title>
<path fill="none" stroke="black" d="M889,-122.27C889,-140.56 889,-166 889,-166 889,-166 676.83,-166 676.83,-166"/>
<polygon fill="black" stroke="black" points="676.83,-162.5 666.83,-166 676.83,-169.5 676.83,-162.5"/>
</g>
<!-- IndexComponent -->
<g id="node3" class="node">
<title>IndexComponent</title>
<polygon fill="#ffffb3" stroke="black" points="810.71,-122 697.29,-122 697.29,-86 810.71,-86 810.71,-122"/>
<text text-anchor="middle" x="754" y="-99.8" font-family="Times,serif" font-size="14.00">IndexComponent</text>
</g>
<!-- IndexComponent&#45;&gt;AppModule -->
<g id="edge3" class="edge">
<title>IndexComponent&#45;&gt;AppModule</title>
<path fill="none" stroke="black" d="M754,-122.01C754,-138.05 754,-159 754,-159 754,-159 676.88,-159 676.88,-159"/>
<polygon fill="black" stroke="black" points="676.88,-155.5 666.88,-159 676.88,-162.5 676.88,-155.5"/>
</g>
<!-- ListaComponent -->
<g id="node4" class="node">
<title>ListaComponent</title>
<polygon fill="#ffffb3" stroke="black" points="679.83,-122 570.17,-122 570.17,-86 679.83,-86 679.83,-122"/>
<text text-anchor="middle" x="625" y="-99.8" font-family="Times,serif" font-size="14.00">ListaComponent</text>
</g>
<!-- ListaComponent&#45;&gt;AppModule -->
<g id="edge4" class="edge">
<title>ListaComponent&#45;&gt;AppModule</title>
<path fill="none" stroke="black" d="M625,-122.11C625,-122.11 625,-140.99 625,-140.99"/>
<polygon fill="black" stroke="black" points="621.5,-140.99 625,-150.99 628.5,-140.99 621.5,-140.99"/>
</g>
<!-- LoginComponent -->
<g id="node5" class="node">
<title>LoginComponent</title>
<polygon fill="#ffffb3" stroke="black" points="552.28,-122 437.72,-122 437.72,-86 552.28,-86 552.28,-122"/>
<text text-anchor="middle" x="495" y="-99.8" font-family="Times,serif" font-size="14.00">LoginComponent</text>
</g>
<!-- LoginComponent&#45;&gt;AppModule -->
<g id="edge5" class="edge">
<title>LoginComponent&#45;&gt;AppModule</title>
<path fill="none" stroke="black" d="M495,-122.01C495,-138.05 495,-159 495,-159 495,-159 573.15,-159 573.15,-159"/>
<polygon fill="black" stroke="black" points="573.15,-162.5 583.15,-159 573.15,-155.5 573.15,-162.5"/>
</g>
<!-- MenuComponent -->
<g id="node6" class="node">
<title>MenuComponent</title>
<polygon fill="#ffffb3" stroke="black" points="419.99,-122 306.01,-122 306.01,-86 419.99,-86 419.99,-122"/>
<text text-anchor="middle" x="363" y="-99.8" font-family="Times,serif" font-size="14.00">MenuComponent</text>
</g>
<!-- MenuComponent&#45;&gt;AppModule -->
<g id="edge6" class="edge">
<title>MenuComponent&#45;&gt;AppModule</title>
<path fill="none" stroke="black" d="M363,-122.27C363,-140.56 363,-166 363,-166 363,-166 573.2,-166 573.2,-166"/>
<polygon fill="black" stroke="black" points="573.2,-169.5 583.2,-166 573.2,-162.5 573.2,-169.5"/>
</g>
<!-- NuevaComponent -->
<g id="node7" class="node">
<title>NuevaComponent</title>
<polygon fill="#ffffb3" stroke="black" points="287.87,-122 170.13,-122 170.13,-86 287.87,-86 287.87,-122"/>
<text text-anchor="middle" x="229" y="-99.8" font-family="Times,serif" font-size="14.00">NuevaComponent</text>
</g>
<!-- NuevaComponent&#45;&gt;AppModule -->
<g id="edge7" class="edge">
<title>NuevaComponent&#45;&gt;AppModule</title>
<path fill="none" stroke="black" d="M229,-122.13C229,-142.57 229,-173 229,-173 229,-173 573,-173 573,-173"/>
<polygon fill="black" stroke="black" points="573,-176.5 583,-173 573,-169.5 573,-176.5"/>
</g>
<!-- RegistroComponent -->
<g id="node8" class="node">
<title>RegistroComponent</title>
<polygon fill="#ffffb3" stroke="black" points="152.27,-122 23.73,-122 23.73,-86 152.27,-86 152.27,-122"/>
<text text-anchor="middle" x="88" y="-99.8" font-family="Times,serif" font-size="14.00">RegistroComponent</text>
</g>
<!-- RegistroComponent&#45;&gt;AppModule -->
<g id="edge8" class="edge">
<title>RegistroComponent&#45;&gt;AppModule</title>
<path fill="none" stroke="black" d="M88,-122.01C88,-144.49 88,-180 88,-180 88,-180 573.31,-180 573.31,-180"/>
<polygon fill="black" stroke="black" points="573.31,-183.5 583.31,-180 573.31,-176.5 573.31,-183.5"/>
</g>
<!-- AppComponent  -->
<g id="node11" class="node">
<title>AppComponent </title>
<polygon fill="#80b1d3" stroke="black" points="679.44,-252 570.56,-252 570.56,-216 679.44,-216 679.44,-252"/>
<text text-anchor="middle" x="625" y="-229.8" font-family="Times,serif" font-size="14.00">AppComponent </text>
</g>
<!-- AppModule&#45;&gt;AppComponent  -->
<g id="edge10" class="edge">
<title>AppModule&#45;&gt;AppComponent </title>
<path fill="none" stroke="black" stroke-dasharray="1,5" d="M625,-187.11C625,-187.11 625,-205.99 625,-205.99"/>
<polygon fill="black" stroke="black" points="621.5,-205.99 625,-215.99 628.5,-205.99 621.5,-205.99"/>
</g>
<!-- AppRoutingModule -->
<g id="node10" class="node">
<title>AppRoutingModule</title>
<polygon fill="#8dd3c7" stroke="black" points="1226.27,-122 1223.27,-126 1202.27,-126 1199.27,-122 1097.73,-122 1097.73,-86 1226.27,-86 1226.27,-122"/>
<text text-anchor="middle" x="1162" y="-99.8" font-family="Times,serif" font-size="14.00">AppRoutingModule</text>
</g>
<!-- AppRoutingModule&#45;&gt;AppModule -->
<g id="edge9" class="edge">
<title>AppRoutingModule&#45;&gt;AppModule</title>
<path fill="none" stroke="black" d="M1162,-122.01C1162,-144.49 1162,-180 1162,-180 1162,-180 676.69,-180 676.69,-180"/>
<polygon fill="black" stroke="black" points="676.69,-176.5 666.69,-180 676.69,-183.5 676.69,-176.5"/>
</g>
</g>
</svg>
