<?xml version="1.0" encoding="UTF-8" standalone="no"?>
<!DOCTYPE svg PUBLIC "-//W3C//DTD SVG 1.1//EN"
 "http://www.w3.org/Graphics/SVG/1.1/DTD/svg11.dtd">
<!-- Generated by graphviz version 2.46.0 (20210119.1425)
 -->
<!-- Title: dependencies Pages: 1 -->
<svg width="1258pt" height="284pt"
 viewBox="0.00 0.00 1258.00 284.00" xmlns="http://www.w3.org/2000/svg" xmlns:xlink="http://www.w3.org/1999/xlink">
<g id="graph0" class="graph" transform="scale(1 1) rotate(0) translate(4 280)">
<title>dependencies</title>
<polygon fill="white" stroke="transparent" points="-4,4 -4,-280 1254,-280 1254,4 -4,4"/>
<text text-anchor="start" x="604.01" y="-42.4" font-family="sans-serif" font-weight="bold" font-size="14.00">Legend</text>
<polygon fill="#ffffb3" stroke="transparent" points="391,-10 391,-30 411,-30 411,-10 391,-10"/>
<text text-anchor="start" x="414.63" y="-15.4" font-family="sans-serif" font-size="14.00"> &#160;Declarations</text>
<polygon fill="#8dd3c7" stroke="transparent" points="504,-10 504,-30 524,-30 524,-10 504,-10"/>
<text text-anchor="start" x="527.73" y="-15.4" font-family="sans-serif" font-size="14.00"> &#160;Module</text>
<polygon fill="#80b1d3" stroke="transparent" points="590,-10 590,-30 610,-30 610,-10 590,-10"/>
<text text-anchor="start" x="613.78" y="-15.4" font-family="sans-serif" font-size="14.00"> &#160;Bootstrap</text>
<polygon fill="#fdb462" stroke="transparent" points="687,-10 687,-30 707,-30 707,-10 687,-10"/>
<text text-anchor="start" x="710.67" y="-15.4" font-family="sans-serif" font-size="14.00"> &#160;Providers</text>
<polygon fill="#fb8072" stroke="transparent" points="783,-10 783,-30 803,-30 803,-10 783,-10"/>
<text text-anchor="start" x="806.73" y="-15.4" font-family="sans-serif" font-size="14.00"> &#160;Exports</text>
<g id="clust1" class="cluster">
<title>cluster_AppModule</title>
<polygon fill="none" stroke="black" stroke-dasharray="1,5" points="8,-70 8,-268 1242,-268 1242,-70 8,-70"/>
</g>
<g id="clust2" class="cluster">
<title>cluster_AppModule_declarations</title>
<polygon fill="none" stroke="black" points="168,-78 168,-130 1234,-130 1234,-78 168,-78"/>
</g>
<g id="clust11" class="cluster">
<title>cluster_AppModule_imports</title>
<polygon fill="none" stroke="black" points="16,-78 16,-130 160,-130 160,-78 16,-78"/>
</g>
<g id="clust13" class="cluster">
<title>cluster_AppModule_bootstrap</title>
<polygon fill="none" stroke="black" points="585,-208 585,-260 709,-260 709,-208 585,-208"/>
</g>
<!-- AppComponent -->
<g id="node1" class="node">
<title>AppComponent</title>
<polygon fill="#ffffb3" stroke="black" points="1225.94,-122 1120.06,-122 1120.06,-86 1225.94,-86 1225.94,-122"/>
<text text-anchor="middle" x="1173" y="-99.8" font-family="Times,serif" font-size="14.00">AppComponent</text>
</g>
<!-- AppModule -->
<g id="node9" class="node">
<title>AppModule</title>
<polygon fill="#8dd3c7" stroke="black" points="688.66,-187 685.66,-191 664.66,-191 661.66,-187 605.34,-187 605.34,-151 688.66,-151 688.66,-187"/>
<text text-anchor="middle" x="647" y="-164.8" font-family="Times,serif" font-size="14.00">AppModule</text>
</g>
<!-- AppComponent&#45;&gt;AppModule -->
<g id="edge1" class="edge">
<title>AppComponent&#45;&gt;AppModule</title>
<path fill="none" stroke="black" d="M1173,-122.01C1173,-144.49 1173,-180 1173,-180 1173,-180 698.71,-180 698.71,-180"/>
<polygon fill="black" stroke="black" points="698.71,-176.5 688.71,-180 698.71,-183.5 698.71,-176.5"/>
</g>
<!-- DetalleComponent -->
<g id="node2" class="node">
<title>DetalleComponent</title>
<polygon fill="#ffffb3" stroke="black" points="1101.75,-122 980.25,-122 980.25,-86 1101.75,-86 1101.75,-122"/>
<text text-anchor="middle" x="1041" y="-99.8" font-family="Times,serif" font-size="14.00">DetalleComponent</text>
</g>
<!-- DetalleComponent&#45;&gt;AppModule -->
<g id="edge2" class="edge">
<title>DetalleComponent&#45;&gt;AppModule</title>
<path fill="none" stroke="black" d="M1041,-122.13C1041,-142.57 1041,-173 1041,-173 1041,-173 698.79,-173 698.79,-173"/>
<polygon fill="black" stroke="black" points="698.79,-169.5 688.79,-173 698.79,-176.5 698.79,-169.5"/>
</g>
<!-- IndexComponent -->
<g id="node3" class="node">
<title>IndexComponent</title>
<polygon fill="#ffffb3" stroke="black" points="962.71,-122 849.29,-122 849.29,-86 962.71,-86 962.71,-122"/>
<text text-anchor="middle" x="906" y="-99.8" font-family="Times,serif" font-size="14.00">IndexComponent</text>
</g>
<!-- IndexComponent&#45;&gt;AppModule -->
<g id="edge3" class="edge">
<title>IndexComponent&#45;&gt;AppModule</title>
<path fill="none" stroke="black" d="M906,-122.27C906,-140.56 906,-166 906,-166 906,-166 698.9,-166 698.9,-166"/>
<polygon fill="black" stroke="black" points="698.9,-162.5 688.9,-166 698.9,-169.5 698.9,-162.5"/>
</g>
<!-- ListaComponent -->
<g id="node4" class="node">
<title>ListaComponent</title>
<polygon fill="#ffffb3" stroke="black" points="831.83,-122 722.17,-122 722.17,-86 831.83,-86 831.83,-122"/>
<text text-anchor="middle" x="777" y="-99.8" font-family="Times,serif" font-size="14.00">ListaComponent</text>
</g>
<!-- ListaComponent&#45;&gt;AppModule -->
<g id="edge4" class="edge">
<title>ListaComponent&#45;&gt;AppModule</title>
<path fill="none" stroke="black" d="M777,-122.01C777,-138.05 777,-159 777,-159 777,-159 698.85,-159 698.85,-159"/>
<polygon fill="black" stroke="black" points="698.85,-155.5 688.85,-159 698.85,-162.5 698.85,-155.5"/>
</g>
<!-- LoginComponent -->
<g id="node5" class="node">
<title>LoginComponent</title>
<polygon fill="#ffffb3" stroke="black" points="704.28,-122 589.72,-122 589.72,-86 704.28,-86 704.28,-122"/>
<text text-anchor="middle" x="647" y="-99.8" font-family="Times,serif" font-size="14.00">LoginComponent</text>
</g>
<!-- LoginComponent&#45;&gt;AppModule -->
<g id="edge5" class="edge">
<title>LoginComponent&#45;&gt;AppModule</title>
<path fill="none" stroke="black" d="M647,-122.11C647,-122.11 647,-140.99 647,-140.99"/>
<polygon fill="black" stroke="black" points="643.5,-140.99 647,-150.99 650.5,-140.99 643.5,-140.99"/>
</g>
<!-- MenuComponent -->
<g id="node6" class="node">
<title>MenuComponent</title>
<polygon fill="#ffffb3" stroke="black" points="571.99,-122 458.01,-122 458.01,-86 571.99,-86 571.99,-122"/>
<text text-anchor="middle" x="515" y="-99.8" font-family="Times,serif" font-size="14.00">MenuComponent</text>
</g>
<!-- MenuComponent&#45;&gt;AppModule -->
<g id="edge6" class="edge">
<title>MenuComponent&#45;&gt;AppModule</title>
<path fill="none" stroke="black" d="M515,-122.01C515,-138.05 515,-159 515,-159 515,-159 595.23,-159 595.23,-159"/>
<polygon fill="black" stroke="black" points="595.23,-162.5 605.23,-159 595.23,-155.5 595.23,-162.5"/>
</g>
<!-- NuevaComponent -->
<g id="node7" class="node">
<title>NuevaComponent</title>
<polygon fill="#ffffb3" stroke="black" points="439.87,-122 322.13,-122 322.13,-86 439.87,-86 439.87,-122"/>
<text text-anchor="middle" x="381" y="-99.8" font-family="Times,serif" font-size="14.00">NuevaComponent</text>
</g>
<!-- NuevaComponent&#45;&gt;AppModule -->
<g id="edge7" class="edge">
<title>NuevaComponent&#45;&gt;AppModule</title>
<path fill="none" stroke="black" d="M381,-122.27C381,-140.56 381,-166 381,-166 381,-166 595.14,-166 595.14,-166"/>
<polygon fill="black" stroke="black" points="595.14,-169.5 605.14,-166 595.14,-162.5 595.14,-169.5"/>
</g>
<!-- RegistroComponent -->
<g id="node8" class="node">
<title>RegistroComponent</title>
<polygon fill="#ffffb3" stroke="black" points="304.27,-122 175.73,-122 175.73,-86 304.27,-86 304.27,-122"/>
<text text-anchor="middle" x="240" y="-99.8" font-family="Times,serif" font-size="14.00">RegistroComponent</text>
</g>
<!-- RegistroComponent&#45;&gt;AppModule -->
<g id="edge8" class="edge">
<title>RegistroComponent&#45;&gt;AppModule</title>
<path fill="none" stroke="black" d="M240,-122.13C240,-142.57 240,-173 240,-173 240,-173 594.98,-173 594.98,-173"/>
<polygon fill="black" stroke="black" points="594.98,-176.5 604.98,-173 594.98,-169.5 594.98,-176.5"/>
</g>
<!-- AppComponent  -->
<g id="node11" class="node">
<title>AppComponent </title>
<polygon fill="#80b1d3" stroke="black" points="701.44,-252 592.56,-252 592.56,-216 701.44,-216 701.44,-252"/>
<text text-anchor="middle" x="647" y="-229.8" font-family="Times,serif" font-size="14.00">AppComponent </text>
</g>
<!-- AppModule&#45;&gt;AppComponent  -->
<g id="edge10" class="edge">
<title>AppModule&#45;&gt;AppComponent </title>
<path fill="none" stroke="black" stroke-dasharray="1,5" d="M647,-187.11C647,-187.11 647,-205.99 647,-205.99"/>
<polygon fill="black" stroke="black" points="643.5,-205.99 647,-215.99 650.5,-205.99 643.5,-205.99"/>
</g>
<!-- AppRoutingModule -->
<g id="node10" class="node">
<title>AppRoutingModule</title>
<polygon fill="#8dd3c7" stroke="black" points="152.27,-122 149.27,-126 128.27,-126 125.27,-122 23.73,-122 23.73,-86 152.27,-86 152.27,-122"/>
<text text-anchor="middle" x="88" y="-99.8" font-family="Times,serif" font-size="14.00">AppRoutingModule</text>
</g>
<!-- AppRoutingModule&#45;&gt;AppModule -->
<g id="edge9" class="edge">
<title>AppRoutingModule&#45;&gt;AppModule</title>
<path fill="none" stroke="black" d="M88,-122.01C88,-144.49 88,-180 88,-180 88,-180 594.98,-180 594.98,-180"/>
<polygon fill="black" stroke="black" points="594.98,-183.5 604.98,-180 594.98,-176.5 594.98,-183.5"/>
</g>
</g>
</svg>
